<?xml version="1.0" encoding="UTF-8" standalone="no"?>
<!DOCTYPE svg PUBLIC "-//W3C//DTD SVG 1.1//EN"
 "http://www.w3.org/Graphics/SVG/1.1/DTD/svg11.dtd">
<!-- Generated by graphviz version 2.40.1 (20161225.0304)
 -->
<!-- Title: G Pages: 1 -->
<svg width="242pt" height="152pt"
 viewBox="0.00 0.00 242.00 152.00" xmlns="http://www.w3.org/2000/svg" xmlns:xlink="http://www.w3.org/1999/xlink">
<g id="graph0" class="graph" transform="scale(1 1) rotate(0) translate(4 148)">
<title>G</title>
<polygon fill="#ffffff" stroke="transparent" points="-4,4 -4,-148 238,-148 238,4 -4,4"/>
<!-- W -->
<g id="node1" class="node">
<title>W</title>
<ellipse fill="none" stroke="#000000" cx="27" cy="-126" rx="27" ry="18"/>
<text text-anchor="middle" x="27" y="-122.3" font-family="Times,serif" font-size="14.00" fill="#000000">W</text>
</g>
<!-- Ŷ -->
<g id="node2" class="node">
<title>Ŷ</title>
<ellipse fill="none" stroke="#000000" cx="117" cy="-72" rx="27" ry="18"/>
<text text-anchor="middle" x="117" y="-68.3" font-family="Times,serif" font-size="14.00" fill="#000000">Ŷ</text>
</g>
<!-- W&#45;&gt;Ŷ -->
<g id="edge1" class="edge">
<title>W&#45;&gt;Ŷ</title>
<path fill="none" stroke="#000000" d="M47.4224,-113.7466C59.3897,-106.5662 74.7024,-97.3785 87.9143,-89.4514"/>
<polygon fill="#000000" stroke="#000000" points="89.8842,-92.3512 96.6584,-84.2049 86.2827,-86.3487 89.8842,-92.3512"/>
</g>
<!-- cost -->
<g id="node5" class="node">
<title>cost</title>
<ellipse fill="none" stroke="#000000" cx="207" cy="-45" rx="27" ry="18"/>
<text text-anchor="middle" x="207" y="-41.3" font-family="Times,serif" font-size="14.00" fill="#000000">cost</text>
</g>
<!-- Ŷ&#45;&gt;cost -->
<g id="edge4" class="edge">
<title>Ŷ&#45;&gt;cost</title>
<path fill="none" stroke="#000000" d="M142.07,-64.479C151.5102,-61.6469 162.4169,-58.3749 172.564,-55.3308"/>
<polygon fill="#000000" stroke="#000000" points="173.803,-58.6133 182.3755,-52.3874 171.7915,-51.9085 173.803,-58.6133"/>
</g>
<!-- b -->
<g id="node3" class="node">
<title>b</title>
<ellipse fill="none" stroke="#000000" cx="27" cy="-72" rx="27" ry="18"/>
<text text-anchor="middle" x="27" y="-68.3" font-family="Times,serif" font-size="14.00" fill="#000000">b</text>
</g>
<!-- b&#45;&gt;Ŷ -->
<g id="edge2" class="edge">
<title>b&#45;&gt;Ŷ</title>
<path fill="none" stroke="#000000" d="M54.003,-72C62.0277,-72 70.9665,-72 79.5309,-72"/>
<polygon fill="#000000" stroke="#000000" points="79.7051,-75.5001 89.705,-72 79.705,-68.5001 79.7051,-75.5001"/>
</g>
<!-- X -->
<g id="node4" class="node">
<title>X</title>
<ellipse fill="none" stroke="#000000" cx="27" cy="-18" rx="27" ry="18"/>
<text text-anchor="middle" x="27" y="-14.3" font-family="Times,serif" font-size="14.00" fill="#000000">X</text>
</g>
<!-- X&#45;&gt;Ŷ -->
<g id="edge3" class="edge">
<title>X&#45;&gt;Ŷ</title>
<path fill="none" stroke="#000000" d="M47.4224,-30.2534C59.3897,-37.4338 74.7024,-46.6215 87.9143,-54.5486"/>
<polygon fill="#000000" stroke="#000000" points="86.2827,-57.6513 96.6584,-59.7951 89.8842,-51.6488 86.2827,-57.6513"/>
</g>
<!-- Y -->
<g id="node6" class="node">
<title>Y</title>
<ellipse fill="none" stroke="#000000" cx="117" cy="-18" rx="27" ry="18"/>
<text text-anchor="middle" x="117" y="-14.3" font-family="Times,serif" font-size="14.00" fill="#000000">Y</text>
</g>
<!-- Y&#45;&gt;cost -->
<g id="edge5" class="edge">
<title>Y&#45;&gt;cost</title>
<path fill="none" stroke="#000000" d="M142.07,-25.521C151.5102,-28.3531 162.4169,-31.6251 172.564,-34.6692"/>
<polygon fill="#000000" stroke="#000000" points="171.7915,-38.0915 182.3755,-37.6126 173.803,-31.3867 171.7915,-38.0915"/>
</g>
</g>
</svg>
