<?xml version="1.0" encoding="UTF-8" standalone="no"?>
<!DOCTYPE svg PUBLIC "-//W3C//DTD SVG 1.1//EN"
 "http://www.w3.org/Graphics/SVG/1.1/DTD/svg11.dtd">
<!-- Generated by graphviz version 2.40.1 (20161225.0304)
 -->
<!-- Title: G Pages: 1 -->
<svg width="528pt" height="172pt"
 viewBox="0.00 0.00 528.19 172.00" xmlns="http://www.w3.org/2000/svg" xmlns:xlink="http://www.w3.org/1999/xlink">
<g id="graph0" class="graph" transform="scale(1 1) rotate(0) translate(4 168)">
<title>G</title>
<polygon fill="#ffffff" stroke="transparent" points="-4,4 -4,-168 524.1938,-168 524.1938,4 -4,4"/>
<!-- W -->
<g id="node1" class="node">
<title>W</title>
<ellipse fill="none" stroke="#000000" cx="117" cy="-100" rx="27" ry="18"/>
<text text-anchor="middle" x="117" y="-96.3" font-family="Times,serif" font-size="14.00" fill="#000000">W</text>
</g>
<!-- Ŷ -->
<g id="node2" class="node">
<title>Ŷ</title>
<ellipse fill="none" stroke="#000000" cx="207" cy="-46" rx="27" ry="18"/>
<text text-anchor="middle" x="207" y="-42.3" font-family="Times,serif" font-size="14.00" fill="#000000">Ŷ</text>
</g>
<!-- W&#45;&gt;Ŷ -->
<g id="edge1" class="edge">
<title>W&#45;&gt;Ŷ</title>
<path fill="none" stroke="#000000" d="M137.4224,-87.7466C149.3897,-80.5662 164.7024,-71.3785 177.9143,-63.4514"/>
<polygon fill="#000000" stroke="#000000" points="179.8842,-66.3512 186.6584,-58.2049 176.2827,-60.3487 179.8842,-66.3512"/>
</g>
<!-- cost -->
<g id="node5" class="node">
<title>cost</title>
<ellipse fill="none" stroke="#000000" cx="297" cy="-96" rx="27" ry="18"/>
<text text-anchor="middle" x="297" y="-92.3" font-family="Times,serif" font-size="14.00" fill="#000000">cost</text>
</g>
<!-- Ŷ&#45;&gt;cost -->
<g id="edge4" class="edge">
<title>Ŷ&#45;&gt;cost</title>
<path fill="none" stroke="#000000" d="M227.874,-57.5967C239.574,-64.0966 254.3631,-72.3128 267.2568,-79.476"/>
<polygon fill="#000000" stroke="#000000" points="265.7978,-82.6693 276.2392,-84.4662 269.1974,-76.5502 265.7978,-82.6693"/>
</g>
<!-- b -->
<g id="node3" class="node">
<title>b</title>
<ellipse fill="none" stroke="#000000" cx="493.1938" cy="-46" rx="27" ry="18"/>
<text text-anchor="middle" x="493.1938" y="-42.3" font-family="Times,serif" font-size="14.00" fill="#000000">b</text>
</g>
<!-- b&#45;&gt;Ŷ -->
<g id="edge2" class="edge">
<title>b&#45;&gt;Ŷ</title>
<path fill="none" stroke="#000000" d="M466.1929,-46C414.8445,-46 303.0307,-46 244.4706,-46"/>
<polygon fill="#000000" stroke="#000000" points="244.1825,-42.5001 234.1824,-46 244.1824,-49.5001 244.1825,-42.5001"/>
</g>
<!-- X -->
<g id="node4" class="node">
<title>X</title>
<ellipse fill="none" stroke="#000000" cx="117" cy="-46" rx="27" ry="18"/>
<text text-anchor="middle" x="117" y="-42.3" font-family="Times,serif" font-size="14.00" fill="#000000">X</text>
</g>
<!-- X&#45;&gt;Ŷ -->
<g id="edge3" class="edge">
<title>X&#45;&gt;Ŷ</title>
<path fill="none" stroke="#000000" d="M144.003,-46C152.0277,-46 160.9665,-46 169.5309,-46"/>
<polygon fill="#000000" stroke="#000000" points="169.7051,-49.5001 179.705,-46 169.705,-42.5001 169.7051,-49.5001"/>
</g>
<!-- δJ/δW -->
<g id="node7" class="node">
<title>δJ/δW</title>
<ellipse fill="none" stroke="#000000" cx="395.0969" cy="-146" rx="35.194" ry="18"/>
<text text-anchor="middle" x="395.0969" y="-142.3" font-family="Times,serif" font-size="14.00" fill="#000000">δJ/δW</text>
</g>
<!-- cost&#45;&gt;δJ/δW -->
<g id="edge6" class="edge">
<title>cost&#45;&gt;δJ/δW</title>
<path fill="none" stroke="#000000" d="M318.7709,-107.0966C331.0619,-113.3614 346.7038,-121.334 360.6231,-128.4287"/>
<polygon fill="#000000" stroke="#000000" points="359.4232,-131.7455 369.9221,-133.1684 362.6021,-125.5089 359.4232,-131.7455"/>
</g>
<!-- δJ/δb -->
<g id="node8" class="node">
<title>δJ/δb</title>
<ellipse fill="none" stroke="#000000" cx="395.0969" cy="-92" rx="30.5947" ry="18"/>
<text text-anchor="middle" x="395.0969" y="-88.3" font-family="Times,serif" font-size="14.00" fill="#000000">δJ/δb</text>
</g>
<!-- cost&#45;&gt;δJ/δb -->
<g id="edge7" class="edge">
<title>cost&#45;&gt;δJ/δb</title>
<path fill="none" stroke="#000000" d="M324.0651,-94.8964C333.3249,-94.5188 343.9028,-94.0875 354.0163,-93.6751"/>
<polygon fill="#000000" stroke="#000000" points="354.4638,-97.1599 364.3129,-93.2552 354.1785,-90.1657 354.4638,-97.1599"/>
</g>
<!-- Y -->
<g id="node6" class="node">
<title>Y</title>
<ellipse fill="none" stroke="#000000" cx="207" cy="-100" rx="27" ry="18"/>
<text text-anchor="middle" x="207" y="-96.3" font-family="Times,serif" font-size="14.00" fill="#000000">Y</text>
</g>
<!-- Y&#45;&gt;cost -->
<g id="edge5" class="edge">
<title>Y&#45;&gt;cost</title>
<path fill="none" stroke="#000000" d="M234.003,-98.7999C242.1013,-98.4399 251.1306,-98.0386 259.7665,-97.6548"/>
<polygon fill="#000000" stroke="#000000" points="260.1814,-101.1399 270.0161,-97.1993 259.8705,-94.1468 260.1814,-101.1399"/>
</g>
<!-- δJ/δW&#45;&gt;W -->
<g id="edge8" class="edge">
<title>δJ/δW&#45;&gt;W</title>
<path fill="none" stroke="#000000" d="M359.887,-146.2768C316.8167,-145.846 241.986,-142.5966 180,-127 169.0686,-124.2495 157.6011,-119.8377 147.491,-115.3706"/>
<polygon fill="#000000" stroke="#000000" points="148.8223,-112.1304 138.2754,-111.1233 145.8922,-118.4877 148.8223,-112.1304"/>
</g>
<!-- δJ/δb&#45;&gt;b -->
<g id="edge9" class="edge">
<title>δJ/δb&#45;&gt;b</title>
<path fill="none" stroke="#000000" d="M419.0941,-80.7471C431.9061,-74.7393 447.8353,-67.2697 461.6379,-60.7973"/>
<polygon fill="#000000" stroke="#000000" points="463.2212,-63.9206 470.7892,-56.506 460.2493,-57.5828 463.2212,-63.9206"/>
</g>
<!-- α -->
<g id="node9" class="node">
<title>α</title>
<ellipse fill="none" stroke="#000000" cx="27" cy="-50" rx="27" ry="18"/>
<text text-anchor="middle" x="27" y="-46.3" font-family="Times,serif" font-size="14.00" fill="#000000">α</text>
</g>
<!-- α&#45;&gt;W -->
<g id="edge10" class="edge">
<title>α&#45;&gt;W</title>
<path fill="none" stroke="#000000" d="M47.874,-61.5967C59.574,-68.0966 74.3631,-76.3128 87.2568,-83.476"/>
<polygon fill="#000000" stroke="#000000" points="85.7978,-86.6693 96.2392,-88.4662 89.1974,-80.5502 85.7978,-86.6693"/>
</g>
<!-- α&#45;&gt;b -->
<g id="edge11" class="edge">
<title>α&#45;&gt;b</title>
<path fill="none" stroke="#000000" d="M47.3524,-38.0602C59.3865,-31.497 75.1365,-23.747 90,-19 140.184,-2.9726 154.3188,0 207,0 207,0 207,0 297,0 355.6103,0 421.5309,-19.6997 460.0938,-33.3157"/>
<polygon fill="#000000" stroke="#000000" points="459.1575,-36.6987 469.7518,-36.8018 461.5342,-30.1145 459.1575,-36.6987"/>
</g>
</g>
</svg>
