<?xml version="1.0" encoding="utf-8" standalone="no"?>
<!DOCTYPE svg PUBLIC "-//W3C//DTD SVG 1.1//EN"
  "http://www.w3.org/Graphics/SVG/1.1/DTD/svg11.dtd">
<!-- Created with matplotlib (https://matplotlib.org/) -->
<svg height="248.518125pt" version="1.1" viewBox="0 0 375.2875 248.518125" width="375.2875pt" xmlns="http://www.w3.org/2000/svg" xmlns:xlink="http://www.w3.org/1999/xlink">
 <defs>
  <style type="text/css">
*{stroke-linecap:butt;stroke-linejoin:round;}
  </style>
 </defs>
 <g id="figure_1">
  <g id="patch_1">
   <path d="M 0 248.518125 
L 375.2875 248.518125 
L 375.2875 0 
L 0 0 
z
" style="fill:none;"/>
  </g>
  <g id="axes_1">
   <g id="patch_2">
    <path d="M 33.2875 224.64 
L 368.0875 224.64 
L 368.0875 7.2 
L 33.2875 7.2 
z
" style="fill:#ffffff;"/>
   </g>
   <g id="PathCollection_1">
    <defs>
     <path d="M 0 3 
C 0.795609 3 1.55874 2.683901 2.12132 2.12132 
C 2.683901 1.55874 3 0.795609 3 0 
C 3 -0.795609 2.683901 -1.55874 2.12132 -2.12132 
C 1.55874 -2.683901 0.795609 -3 0 -3 
C -0.795609 -3 -1.55874 -2.683901 -2.12132 -2.12132 
C -2.683901 -1.55874 -3 -0.795609 -3 0 
C -3 0.795609 -2.683901 1.55874 -2.12132 2.12132 
C -1.55874 2.683901 -0.795609 3 0 3 
z
" id="m3de0288c23" style="stroke:#1f77b4;"/>
    </defs>
    <g clip-path="url(#p271f35725b)">
     <use style="fill:#1f77b4;stroke:#1f77b4;" x="58.589032" xlink:href="#m3de0288c23" y="202.984195"/>
     <use style="fill:#1f77b4;stroke:#1f77b4;" x="192.218337" xlink:href="#m3de0288c23" y="116.236052"/>
     <use style="fill:#1f77b4;stroke:#1f77b4;" x="136.105822" xlink:href="#m3de0288c23" y="155.887384"/>
     <use style="fill:#1f77b4;stroke:#1f77b4;" x="133.16202" xlink:href="#m3de0288c23" y="154.734208"/>
     <use style="fill:#1f77b4;stroke:#1f77b4;" x="338.386452" xlink:href="#m3de0288c23" y="38.312436"/>
     <use style="fill:#1f77b4;stroke:#1f77b4;" x="109.579167" xlink:href="#m3de0288c23" y="177.628545"/>
     <use style="fill:#1f77b4;stroke:#1f77b4;" x="73.233607" xlink:href="#m3de0288c23" y="203.153228"/>
     <use style="fill:#1f77b4;stroke:#1f77b4;" x="262.191001" xlink:href="#m3de0288c23" y="74.452582"/>
     <use style="fill:#1f77b4;stroke:#1f77b4;" x="130.473814" xlink:href="#m3de0288c23" y="158.319696"/>
     <use style="fill:#1f77b4;stroke:#1f77b4;" x="320.471115" xlink:href="#m3de0288c23" y="44.48608"/>
     <use style="fill:#1f77b4;stroke:#1f77b4;" x="138.50571" xlink:href="#m3de0288c23" y="165.28423"/>
     <use style="fill:#1f77b4;stroke:#1f77b4;" x="67.779909" xlink:href="#m3de0288c23" y="198.257534"/>
     <use style="fill:#1f77b4;stroke:#1f77b4;" x="172.704418" xlink:href="#m3de0288c23" y="134.956506"/>
     <use style="fill:#1f77b4;stroke:#1f77b4;" x="343.489476" xlink:href="#m3de0288c23" y="38.56279"/>
     <use style="fill:#1f77b4;stroke:#1f77b4;" x="257.928696" xlink:href="#m3de0288c23" y="79.733991"/>
     <use style="fill:#1f77b4;stroke:#1f77b4;" x="95.287291" xlink:href="#m3de0288c23" y="183.093141"/>
     <use style="fill:#1f77b4;stroke:#1f77b4;" x="304.4222" xlink:href="#m3de0288c23" y="45.132301"/>
     <use style="fill:#1f77b4;stroke:#1f77b4;" x="94.682107" xlink:href="#m3de0288c23" y="188.452463"/>
     <use style="fill:#1f77b4;stroke:#1f77b4;" x="282.943854" xlink:href="#m3de0288c23" y="74.238185"/>
     <use style="fill:#1f77b4;stroke:#1f77b4;" x="85.293816" xlink:href="#m3de0288c23" y="187.887762"/>
     <use style="fill:#1f77b4;stroke:#1f77b4;" x="131.690885" xlink:href="#m3de0288c23" y="157.745681"/>
     <use style="fill:#1f77b4;stroke:#1f77b4;" x="131.345472" xlink:href="#m3de0288c23" y="155.454776"/>
     <use style="fill:#1f77b4;stroke:#1f77b4;" x="190.970145" xlink:href="#m3de0288c23" y="128.905832"/>
     <use style="fill:#1f77b4;stroke:#1f77b4;" x="157.382387" xlink:href="#m3de0288c23" y="137.440431"/>
     <use style="fill:#1f77b4;stroke:#1f77b4;" x="110.153801" xlink:href="#m3de0288c23" y="178.476117"/>
     <use style="fill:#1f77b4;stroke:#1f77b4;" x="114.44231" xlink:href="#m3de0288c23" y="168.040256"/>
     <use style="fill:#1f77b4;stroke:#1f77b4;" x="168.282031" xlink:href="#m3de0288c23" y="142.295629"/>
     <use style="fill:#1f77b4;stroke:#1f77b4;" x="296.89792" xlink:href="#m3de0288c23" y="67.178515"/>
     <use style="fill:#1f77b4;stroke:#1f77b4;" x="331.323193" xlink:href="#m3de0288c23" y="29.057238"/>
     <use style="fill:#1f77b4;stroke:#1f77b4;" x="295.616015" xlink:href="#m3de0288c23" y="68.398518"/>
     <use style="fill:#1f77b4;stroke:#1f77b4;" x="87.109719" xlink:href="#m3de0288c23" y="193.182009"/>
     <use style="fill:#1f77b4;stroke:#1f77b4;" x="229.539835" xlink:href="#m3de0288c23" y="109.999937"/>
     <use style="fill:#1f77b4;stroke:#1f77b4;" x="94.239296" xlink:href="#m3de0288c23" y="193.97301"/>
     <use style="fill:#1f77b4;stroke:#1f77b4;" x="91.654948" xlink:href="#m3de0288c23" y="188.923514"/>
     <use style="fill:#1f77b4;stroke:#1f77b4;" x="243.433485" xlink:href="#m3de0288c23" y="87.590112"/>
     <use style="fill:#1f77b4;stroke:#1f77b4;" x="190.837191" xlink:href="#m3de0288c23" y="116.410665"/>
     <use style="fill:#1f77b4;stroke:#1f77b4;" x="208.664971" xlink:href="#m3de0288c23" y="123.786506"/>
     <use style="fill:#1f77b4;stroke:#1f77b4;" x="252.623537" xlink:href="#m3de0288c23" y="93.563885"/>
     <use style="fill:#1f77b4;stroke:#1f77b4;" x="119.7682" xlink:href="#m3de0288c23" y="179.432546"/>
     <use style="fill:#1f77b4;stroke:#1f77b4;" x="236.350614" xlink:href="#m3de0288c23" y="88.695117"/>
     <use style="fill:#1f77b4;stroke:#1f77b4;" x="250.392825" xlink:href="#m3de0288c23" y="82.5799"/>
     <use style="fill:#1f77b4;stroke:#1f77b4;" x="204.01298" xlink:href="#m3de0288c23" y="116.99654"/>
     <use style="fill:#1f77b4;stroke:#1f77b4;" x="290.685088" xlink:href="#m3de0288c23" y="71.516481"/>
     <use style="fill:#1f77b4;stroke:#1f77b4;" x="282.599495" xlink:href="#m3de0288c23" y="73.506428"/>
     <use style="fill:#1f77b4;stroke:#1f77b4;" x="285.375334" xlink:href="#m3de0288c23" y="60.561911"/>
     <use style="fill:#1f77b4;stroke:#1f77b4;" x="246.309472" xlink:href="#m3de0288c23" y="91.218398"/>
     <use style="fill:#1f77b4;stroke:#1f77b4;" x="292.615119" xlink:href="#m3de0288c23" y="64.828597"/>
     <use style="fill:#1f77b4;stroke:#1f77b4;" x="258.020175" xlink:href="#m3de0288c23" y="83.938936"/>
     <use style="fill:#1f77b4;stroke:#1f77b4;" x="129.115337" xlink:href="#m3de0288c23" y="162.800696"/>
     <use style="fill:#1f77b4;stroke:#1f77b4;" x="202.827124" xlink:href="#m3de0288c23" y="124.642137"/>
     <use style="fill:#1f77b4;stroke:#1f77b4;" x="157.997696" xlink:href="#m3de0288c23" y="152.350527"/>
     <use style="fill:#1f77b4;stroke:#1f77b4;" x="92.205912" xlink:href="#m3de0288c23" y="185.692927"/>
     <use style="fill:#1f77b4;stroke:#1f77b4;" x="48.505682" xlink:href="#m3de0288c23" y="214.42793"/>
     <use style="fill:#1f77b4;stroke:#1f77b4;" x="336.834304" xlink:href="#m3de0288c23" y="26.266997"/>
     <use style="fill:#1f77b4;stroke:#1f77b4;" x="236.219721" xlink:href="#m3de0288c23" y="93.277424"/>
     <use style="fill:#1f77b4;stroke:#1f77b4;" x="311.265042" xlink:href="#m3de0288c23" y="57.205695"/>
     <use style="fill:#1f77b4;stroke:#1f77b4;" x="281.716841" xlink:href="#m3de0288c23" y="68.924573"/>
     <use style="fill:#1f77b4;stroke:#1f77b4;" x="138.314996" xlink:href="#m3de0288c23" y="159.607181"/>
     <use style="fill:#1f77b4;stroke:#1f77b4;" x="290.139442" xlink:href="#m3de0288c23" y="70.984338"/>
     <use style="fill:#1f77b4;stroke:#1f77b4;" x="151.091257" xlink:href="#m3de0288c23" y="150.945791"/>
     <use style="fill:#1f77b4;stroke:#1f77b4;" x="284.865334" xlink:href="#m3de0288c23" y="68.464945"/>
     <use style="fill:#1f77b4;stroke:#1f77b4;" x="66.876172" xlink:href="#m3de0288c23" y="197.307627"/>
     <use style="fill:#1f77b4;stroke:#1f77b4;" x="130.66146" xlink:href="#m3de0288c23" y="163.795979"/>
     <use style="fill:#1f77b4;stroke:#1f77b4;" x="155.616631" xlink:href="#m3de0288c23" y="146.380928"/>
     <use style="fill:#1f77b4;stroke:#1f77b4;" x="213.705176" xlink:href="#m3de0288c23" y="117.419872"/>
     <use style="fill:#1f77b4;stroke:#1f77b4;" x="306.409267" xlink:href="#m3de0288c23" y="43.825165"/>
     <use style="fill:#1f77b4;stroke:#1f77b4;" x="224.304469" xlink:href="#m3de0288c23" y="104.788882"/>
     <use style="fill:#1f77b4;stroke:#1f77b4;" x="293.699036" xlink:href="#m3de0288c23" y="63.585237"/>
     <use style="fill:#1f77b4;stroke:#1f77b4;" x="195.885194" xlink:href="#m3de0288c23" y="129.439843"/>
     <use style="fill:#1f77b4;stroke:#1f77b4;" x="266.808055" xlink:href="#m3de0288c23" y="77.219842"/>
     <use style="fill:#1f77b4;stroke:#1f77b4;" x="115.607993" xlink:href="#m3de0288c23" y="175.70402"/>
     <use style="fill:#1f77b4;stroke:#1f77b4;" x="310.144138" xlink:href="#m3de0288c23" y="53.06457"/>
     <use style="fill:#1f77b4;stroke:#1f77b4;" x="91.842997" xlink:href="#m3de0288c23" y="186.267378"/>
     <use style="fill:#1f77b4;stroke:#1f77b4;" x="73.895865" xlink:href="#m3de0288c23" y="193.810467"/>
     <use style="fill:#1f77b4;stroke:#1f77b4;" x="92.495243" xlink:href="#m3de0288c23" y="194.170563"/>
     <use style="fill:#1f77b4;stroke:#1f77b4;" x="233.749227" xlink:href="#m3de0288c23" y="95.221408"/>
     <use style="fill:#1f77b4;stroke:#1f77b4;" x="53.969998" xlink:href="#m3de0288c23" y="204.132197"/>
     <use style="fill:#1f77b4;stroke:#1f77b4;" x="290.204512" xlink:href="#m3de0288c23" y="60.27218"/>
     <use style="fill:#1f77b4;stroke:#1f77b4;" x="179.101316" xlink:href="#m3de0288c23" y="131.051004"/>
     <use style="fill:#1f77b4;stroke:#1f77b4;" x="104.298515" xlink:href="#m3de0288c23" y="170.998638"/>
     <use style="fill:#1f77b4;stroke:#1f77b4;" x="78.56178" xlink:href="#m3de0288c23" y="190.798685"/>
     <use style="fill:#1f77b4;stroke:#1f77b4;" x="88.880626" xlink:href="#m3de0288c23" y="192.451812"/>
     <use style="fill:#1f77b4;stroke:#1f77b4;" x="323.947687" xlink:href="#m3de0288c23" y="44.098154"/>
     <use style="fill:#1f77b4;stroke:#1f77b4;" x="139.522932" xlink:href="#m3de0288c23" y="167.217711"/>
     <use style="fill:#1f77b4;stroke:#1f77b4;" x="352.869318" xlink:href="#m3de0288c23" y="17.083636"/>
     <use style="fill:#1f77b4;stroke:#1f77b4;" x="212.933696" xlink:href="#m3de0288c23" y="108.710418"/>
     <use style="fill:#1f77b4;stroke:#1f77b4;" x="274.169143" xlink:href="#m3de0288c23" y="64.322419"/>
     <use style="fill:#1f77b4;stroke:#1f77b4;" x="334.357567" xlink:href="#m3de0288c23" y="31.236672"/>
     <use style="fill:#1f77b4;stroke:#1f77b4;" x="285.30626" xlink:href="#m3de0288c23" y="72.110034"/>
     <use style="fill:#1f77b4;stroke:#1f77b4;" x="256.183696" xlink:href="#m3de0288c23" y="85.483812"/>
     <use style="fill:#1f77b4;stroke:#1f77b4;" x="289.522154" xlink:href="#m3de0288c23" y="55.879406"/>
     <use style="fill:#1f77b4;stroke:#1f77b4;" x="331.517577" xlink:href="#m3de0288c23" y="40.38822"/>
     <use style="fill:#1f77b4;stroke:#1f77b4;" x="261.994474" xlink:href="#m3de0288c23" y="80.740168"/>
     <use style="fill:#1f77b4;stroke:#1f77b4;" x="83.13373" xlink:href="#m3de0288c23" y="192.156207"/>
     <use style="fill:#1f77b4;stroke:#1f77b4;" x="334.782992" xlink:href="#m3de0288c23" y="29.703264"/>
     <use style="fill:#1f77b4;stroke:#1f77b4;" x="68.234778" xlink:href="#m3de0288c23" y="201.491605"/>
     <use style="fill:#1f77b4;stroke:#1f77b4;" x="157.722305" xlink:href="#m3de0288c23" y="147.236272"/>
     <use style="fill:#1f77b4;stroke:#1f77b4;" x="117.018629" xlink:href="#m3de0288c23" y="169.326196"/>
     <use style="fill:#1f77b4;stroke:#1f77b4;" x="321.808524" xlink:href="#m3de0288c23" y="42.437979"/>
     <use style="fill:#1f77b4;stroke:#1f77b4;" x="315.550082" xlink:href="#m3de0288c23" y="51.372372"/>
    </g>
   </g>
   <g id="matplotlib.axis_1">
    <g id="xtick_1">
     <g id="line2d_1">
      <defs>
       <path d="M 0 0 
L 0 3.5 
" id="m4761acb33f" style="stroke:#000000;stroke-width:0.8;"/>
      </defs>
      <g>
       <use style="stroke:#000000;stroke-width:0.8;" x="45.505285" xlink:href="#m4761acb33f" y="224.64"/>
      </g>
     </g>
     <g id="text_1">
      <!-- 0 -->
      <defs>
       <path d="M 31.78125 66.40625 
Q 24.171875 66.40625 20.328125 58.90625 
Q 16.5 51.421875 16.5 36.375 
Q 16.5 21.390625 20.328125 13.890625 
Q 24.171875 6.390625 31.78125 6.390625 
Q 39.453125 6.390625 43.28125 13.890625 
Q 47.125 21.390625 47.125 36.375 
Q 47.125 51.421875 43.28125 58.90625 
Q 39.453125 66.40625 31.78125 66.40625 
z
M 31.78125 74.21875 
Q 44.046875 74.21875 50.515625 64.515625 
Q 56.984375 54.828125 56.984375 36.375 
Q 56.984375 17.96875 50.515625 8.265625 
Q 44.046875 -1.421875 31.78125 -1.421875 
Q 19.53125 -1.421875 13.0625 8.265625 
Q 6.59375 17.96875 6.59375 36.375 
Q 6.59375 54.828125 13.0625 64.515625 
Q 19.53125 74.21875 31.78125 74.21875 
z
" id="DejaVuSans-48"/>
      </defs>
      <g transform="translate(42.324035 239.238437)scale(0.1 -0.1)">
       <use xlink:href="#DejaVuSans-48"/>
      </g>
     </g>
    </g>
    <g id="xtick_2">
     <g id="line2d_2">
      <g>
       <use style="stroke:#000000;stroke-width:0.8;" x="107.263266" xlink:href="#m4761acb33f" y="224.64"/>
      </g>
     </g>
     <g id="text_2">
      <!-- 20 -->
      <defs>
       <path d="M 19.1875 8.296875 
L 53.609375 8.296875 
L 53.609375 0 
L 7.328125 0 
L 7.328125 8.296875 
Q 12.9375 14.109375 22.625 23.890625 
Q 32.328125 33.6875 34.8125 36.53125 
Q 39.546875 41.84375 41.421875 45.53125 
Q 43.3125 49.21875 43.3125 52.78125 
Q 43.3125 58.59375 39.234375 62.25 
Q 35.15625 65.921875 28.609375 65.921875 
Q 23.96875 65.921875 18.8125 64.3125 
Q 13.671875 62.703125 7.8125 59.421875 
L 7.8125 69.390625 
Q 13.765625 71.78125 18.9375 73 
Q 24.125 74.21875 28.421875 74.21875 
Q 39.75 74.21875 46.484375 68.546875 
Q 53.21875 62.890625 53.21875 53.421875 
Q 53.21875 48.921875 51.53125 44.890625 
Q 49.859375 40.875 45.40625 35.40625 
Q 44.1875 33.984375 37.640625 27.21875 
Q 31.109375 20.453125 19.1875 8.296875 
z
" id="DejaVuSans-50"/>
      </defs>
      <g transform="translate(100.900766 239.238437)scale(0.1 -0.1)">
       <use xlink:href="#DejaVuSans-50"/>
       <use x="63.623047" xlink:href="#DejaVuSans-48"/>
      </g>
     </g>
    </g>
    <g id="xtick_3">
     <g id="line2d_3">
      <g>
       <use style="stroke:#000000;stroke-width:0.8;" x="169.021247" xlink:href="#m4761acb33f" y="224.64"/>
      </g>
     </g>
     <g id="text_3">
      <!-- 40 -->
      <defs>
       <path d="M 37.796875 64.3125 
L 12.890625 25.390625 
L 37.796875 25.390625 
z
M 35.203125 72.90625 
L 47.609375 72.90625 
L 47.609375 25.390625 
L 58.015625 25.390625 
L 58.015625 17.1875 
L 47.609375 17.1875 
L 47.609375 0 
L 37.796875 0 
L 37.796875 17.1875 
L 4.890625 17.1875 
L 4.890625 26.703125 
z
" id="DejaVuSans-52"/>
      </defs>
      <g transform="translate(162.658747 239.238437)scale(0.1 -0.1)">
       <use xlink:href="#DejaVuSans-52"/>
       <use x="63.623047" xlink:href="#DejaVuSans-48"/>
      </g>
     </g>
    </g>
    <g id="xtick_4">
     <g id="line2d_4">
      <g>
       <use style="stroke:#000000;stroke-width:0.8;" x="230.779228" xlink:href="#m4761acb33f" y="224.64"/>
      </g>
     </g>
     <g id="text_4">
      <!-- 60 -->
      <defs>
       <path d="M 33.015625 40.375 
Q 26.375 40.375 22.484375 35.828125 
Q 18.609375 31.296875 18.609375 23.390625 
Q 18.609375 15.53125 22.484375 10.953125 
Q 26.375 6.390625 33.015625 6.390625 
Q 39.65625 6.390625 43.53125 10.953125 
Q 47.40625 15.53125 47.40625 23.390625 
Q 47.40625 31.296875 43.53125 35.828125 
Q 39.65625 40.375 33.015625 40.375 
z
M 52.59375 71.296875 
L 52.59375 62.3125 
Q 48.875 64.0625 45.09375 64.984375 
Q 41.3125 65.921875 37.59375 65.921875 
Q 27.828125 65.921875 22.671875 59.328125 
Q 17.53125 52.734375 16.796875 39.40625 
Q 19.671875 43.65625 24.015625 45.921875 
Q 28.375 48.1875 33.59375 48.1875 
Q 44.578125 48.1875 50.953125 41.515625 
Q 57.328125 34.859375 57.328125 23.390625 
Q 57.328125 12.15625 50.6875 5.359375 
Q 44.046875 -1.421875 33.015625 -1.421875 
Q 20.359375 -1.421875 13.671875 8.265625 
Q 6.984375 17.96875 6.984375 36.375 
Q 6.984375 53.65625 15.1875 63.9375 
Q 23.390625 74.21875 37.203125 74.21875 
Q 40.921875 74.21875 44.703125 73.484375 
Q 48.484375 72.75 52.59375 71.296875 
z
" id="DejaVuSans-54"/>
      </defs>
      <g transform="translate(224.416728 239.238437)scale(0.1 -0.1)">
       <use xlink:href="#DejaVuSans-54"/>
       <use x="63.623047" xlink:href="#DejaVuSans-48"/>
      </g>
     </g>
    </g>
    <g id="xtick_5">
     <g id="line2d_5">
      <g>
       <use style="stroke:#000000;stroke-width:0.8;" x="292.53721" xlink:href="#m4761acb33f" y="224.64"/>
      </g>
     </g>
     <g id="text_5">
      <!-- 80 -->
      <defs>
       <path d="M 31.78125 34.625 
Q 24.75 34.625 20.71875 30.859375 
Q 16.703125 27.09375 16.703125 20.515625 
Q 16.703125 13.921875 20.71875 10.15625 
Q 24.75 6.390625 31.78125 6.390625 
Q 38.8125 6.390625 42.859375 10.171875 
Q 46.921875 13.96875 46.921875 20.515625 
Q 46.921875 27.09375 42.890625 30.859375 
Q 38.875 34.625 31.78125 34.625 
z
M 21.921875 38.8125 
Q 15.578125 40.375 12.03125 44.71875 
Q 8.5 49.078125 8.5 55.328125 
Q 8.5 64.0625 14.71875 69.140625 
Q 20.953125 74.21875 31.78125 74.21875 
Q 42.671875 74.21875 48.875 69.140625 
Q 55.078125 64.0625 55.078125 55.328125 
Q 55.078125 49.078125 51.53125 44.71875 
Q 48 40.375 41.703125 38.8125 
Q 48.828125 37.15625 52.796875 32.3125 
Q 56.78125 27.484375 56.78125 20.515625 
Q 56.78125 9.90625 50.3125 4.234375 
Q 43.84375 -1.421875 31.78125 -1.421875 
Q 19.734375 -1.421875 13.25 4.234375 
Q 6.78125 9.90625 6.78125 20.515625 
Q 6.78125 27.484375 10.78125 32.3125 
Q 14.796875 37.15625 21.921875 38.8125 
z
M 18.3125 54.390625 
Q 18.3125 48.734375 21.84375 45.5625 
Q 25.390625 42.390625 31.78125 42.390625 
Q 38.140625 42.390625 41.71875 45.5625 
Q 45.3125 48.734375 45.3125 54.390625 
Q 45.3125 60.0625 41.71875 63.234375 
Q 38.140625 66.40625 31.78125 66.40625 
Q 25.390625 66.40625 21.84375 63.234375 
Q 18.3125 60.0625 18.3125 54.390625 
z
" id="DejaVuSans-56"/>
      </defs>
      <g transform="translate(286.17471 239.238437)scale(0.1 -0.1)">
       <use xlink:href="#DejaVuSans-56"/>
       <use x="63.623047" xlink:href="#DejaVuSans-48"/>
      </g>
     </g>
    </g>
    <g id="xtick_6">
     <g id="line2d_6">
      <g>
       <use style="stroke:#000000;stroke-width:0.8;" x="354.295191" xlink:href="#m4761acb33f" y="224.64"/>
      </g>
     </g>
     <g id="text_6">
      <!-- 100 -->
      <defs>
       <path d="M 12.40625 8.296875 
L 28.515625 8.296875 
L 28.515625 63.921875 
L 10.984375 60.40625 
L 10.984375 69.390625 
L 28.421875 72.90625 
L 38.28125 72.90625 
L 38.28125 8.296875 
L 54.390625 8.296875 
L 54.390625 0 
L 12.40625 0 
z
" id="DejaVuSans-49"/>
      </defs>
      <g transform="translate(344.751441 239.238437)scale(0.1 -0.1)">
       <use xlink:href="#DejaVuSans-49"/>
       <use x="63.623047" xlink:href="#DejaVuSans-48"/>
       <use x="127.246094" xlink:href="#DejaVuSans-48"/>
      </g>
     </g>
    </g>
   </g>
   <g id="matplotlib.axis_2">
    <g id="ytick_1">
     <g id="line2d_7">
      <defs>
       <path d="M 0 0 
L -3.5 0 
" id="m51228587b5" style="stroke:#000000;stroke-width:0.8;"/>
      </defs>
      <g>
       <use style="stroke:#000000;stroke-width:0.8;" x="33.2875" xlink:href="#m51228587b5" y="189.833426"/>
      </g>
     </g>
     <g id="text_7">
      <!-- 20 -->
      <g transform="translate(13.5625 193.632645)scale(0.1 -0.1)">
       <use xlink:href="#DejaVuSans-50"/>
       <use x="63.623047" xlink:href="#DejaVuSans-48"/>
      </g>
     </g>
    </g>
    <g id="ytick_2">
     <g id="line2d_8">
      <g>
       <use style="stroke:#000000;stroke-width:0.8;" x="33.2875" xlink:href="#m51228587b5" y="150.328956"/>
      </g>
     </g>
     <g id="text_8">
      <!-- 40 -->
      <g transform="translate(13.5625 154.128175)scale(0.1 -0.1)">
       <use xlink:href="#DejaVuSans-52"/>
       <use x="63.623047" xlink:href="#DejaVuSans-48"/>
      </g>
     </g>
    </g>
    <g id="ytick_3">
     <g id="line2d_9">
      <g>
       <use style="stroke:#000000;stroke-width:0.8;" x="33.2875" xlink:href="#m51228587b5" y="110.824486"/>
      </g>
     </g>
     <g id="text_9">
      <!-- 60 -->
      <g transform="translate(13.5625 114.623705)scale(0.1 -0.1)">
       <use xlink:href="#DejaVuSans-54"/>
       <use x="63.623047" xlink:href="#DejaVuSans-48"/>
      </g>
     </g>
    </g>
    <g id="ytick_4">
     <g id="line2d_10">
      <g>
       <use style="stroke:#000000;stroke-width:0.8;" x="33.2875" xlink:href="#m51228587b5" y="71.320017"/>
      </g>
     </g>
     <g id="text_10">
      <!-- 80 -->
      <g transform="translate(13.5625 75.119235)scale(0.1 -0.1)">
       <use xlink:href="#DejaVuSans-56"/>
       <use x="63.623047" xlink:href="#DejaVuSans-48"/>
      </g>
     </g>
    </g>
    <g id="ytick_5">
     <g id="line2d_11">
      <g>
       <use style="stroke:#000000;stroke-width:0.8;" x="33.2875" xlink:href="#m51228587b5" y="31.815547"/>
      </g>
     </g>
     <g id="text_11">
      <!-- 100 -->
      <g transform="translate(7.2 35.614765)scale(0.1 -0.1)">
       <use xlink:href="#DejaVuSans-49"/>
       <use x="63.623047" xlink:href="#DejaVuSans-48"/>
       <use x="127.246094" xlink:href="#DejaVuSans-48"/>
      </g>
     </g>
    </g>
   </g>
   <g id="line2d_12">
    <path clip-path="url(#p271f35725b)" d="M 58.589032 208.434533 
L 192.218337 124.654652 
L 136.105822 159.83481 
L 133.16202 161.680448 
L 338.386452 33.013472 
L 109.579167 176.465894 
L 73.233607 199.253009 
L 262.191001 80.784775 
L 130.473814 163.365835 
L 320.471115 44.245627 
L 138.50571 158.330185 
L 67.779909 202.672245 
L 172.704418 136.889052 
L 343.489476 29.814087 
L 257.928696 83.45705 
L 95.287291 185.42629 
L 304.4222 54.307599 
L 94.682107 185.805712 
L 282.943854 67.77362 
L 85.293816 191.691772 
L 131.690885 162.602785 
L 131.345472 162.819345 
L 190.970145 125.437217 
L 157.382387 146.495307 
L 110.153801 176.105621 
L 114.44231 173.416905 
L 168.282031 139.661699 
L 296.89792 59.025007 
L 331.323193 37.441826 
L 295.616015 59.828707 
L 87.109719 190.553278 
L 229.539835 101.255656 
L 94.239296 186.083339 
L 91.654948 187.703613 
L 243.433485 92.544929 
L 190.837191 125.520576 
L 208.664971 114.343313 
L 252.623537 86.783157 
L 119.7682 170.0778 
L 236.350614 96.985595 
L 250.392825 88.181721 
L 204.01298 117.259914 
L 290.685088 62.920193 
L 282.599495 67.989509 
L 285.375334 66.249178 
L 246.309472 90.741817 
L 292.615119 61.710137 
L 258.020175 83.399694 
L 129.115337 164.217548 
L 202.827124 118.003396 
L 157.997696 146.109537 
L 92.205912 187.35818 
L 48.505682 214.756364 
L 336.834304 33.986602 
L 236.219721 97.067665 
L 311.265042 50.017435 
L 281.716841 68.542901 
L 138.314996 158.449748 
L 290.139442 63.262292 
L 151.091257 150.439583 
L 284.865334 66.568928 
L 66.876172 203.238849 
L 130.66146 163.248193 
L 155.616631 147.602362 
L 213.705176 111.18332 
L 306.409267 53.061798 
L 224.304469 104.538016 
L 293.699036 61.030581 
L 195.885194 122.355693 
L 266.808055 77.89007 
L 115.607993 172.686074 
L 310.144138 50.720198 
L 91.842997 187.585711 
L 73.895865 198.837801 
L 92.495243 187.176786 
L 233.749227 98.61655 
L 53.969998 211.33047 
L 290.204512 63.221498 
L 179.101316 132.878469 
L 104.298515 179.776637 
L 78.56178 195.912469 
L 88.880626 189.442995 
L 323.947687 42.065952 
L 139.522932 157.692425 
L 352.869318 23.933324 
L 212.933696 111.667006 
L 274.169143 73.274986 
L 334.357567 35.539405 
L 285.30626 66.292489 
L 256.183696 84.551099 
L 289.522154 63.649298 
L 331.517577 37.319957 
L 261.994474 80.907985 
L 83.13373 193.046054 
L 334.782992 35.272685 
L 68.234778 202.387061 
L 157.722305 146.282198 
L 117.018629 171.801668 
L 321.808524 43.407115 
L 315.550082 47.330904 
" style="fill:none;stroke:#ff0000;stroke-linecap:square;stroke-width:1.5;"/>
   </g>
   <g id="patch_3">
    <path d="M 33.2875 224.64 
L 33.2875 7.2 
" style="fill:none;stroke:#000000;stroke-linecap:square;stroke-linejoin:miter;stroke-width:0.8;"/>
   </g>
   <g id="patch_4">
    <path d="M 368.0875 224.64 
L 368.0875 7.2 
" style="fill:none;stroke:#000000;stroke-linecap:square;stroke-linejoin:miter;stroke-width:0.8;"/>
   </g>
   <g id="patch_5">
    <path d="M 33.2875 224.64 
L 368.0875 224.64 
" style="fill:none;stroke:#000000;stroke-linecap:square;stroke-linejoin:miter;stroke-width:0.8;"/>
   </g>
   <g id="patch_6">
    <path d="M 33.2875 7.2 
L 368.0875 7.2 
" style="fill:none;stroke:#000000;stroke-linecap:square;stroke-linejoin:miter;stroke-width:0.8;"/>
   </g>
  </g>
 </g>
 <defs>
  <clipPath id="p271f35725b">
   <rect height="217.44" width="334.8" x="33.2875" y="7.2"/>
  </clipPath>
 </defs>
</svg>
